STARTFONT 2.1
FONT -Adobe-Utopia-Regular-R-Normal--19-180-75-75-P-101-ISO8859-2
SIZE 18 75 75
FONTBOUNDINGBOX 24 18 -3 -4
STARTPROPERTIES 29
FOUNDRY "Adobe"
FAMILY_NAME "Utopia"
WEIGHT_NAME "Regular"
SLANT "R"
SETWIDTH_NAME "Normal"
ADD_STYLE_NAME ""
PIXEL_SIZE 19
POINT_SIZE 180
RESOLUTION_X 75
RESOLUTION_Y 75
SPACING "P"
AVERAGE_WIDTH 101
CHARSET_REGISTRY "ISO8859"
CHARSET_ENCODING "2"
CAP_HEIGHT 13
X_HEIGHT 9
RELATIVE_SETWIDTH 50
RELATIVE_WEIGHT 50
WEIGHT 136
FACE_NAME "Utopia Regular"
COPYRIGHT "Copyright (c) 1989, 1991 Adobe Systems Incorporated.  All rights reserved., Copyright 1996 Cub Soft"
NOTICE "Utopia is a registered trademark of Adobe Systems Incorporated."
DESTINATION 0
FONT_ASCENT 14
FONT_DESCENT 4
DEFAULT_CHAR 32
_ADOBE_PSFONT "Utopia-Regular"
_ADOBE_XFONT "-Adobe-Utopia-Regular-R-Normal--19-180-75-75-P-101-ISO8859-2"
_DEC_DEVICE_FONTNAMES "PS=Utopia-Regular"
ENDPROPERTIES
CHARS 191
STARTCHAR space
ENCODING 32
SWIDTH 225 0
DWIDTH 4 0
BBX 0 0 0 0
BITMAP
ENDCHAR
STARTCHAR exclam
ENCODING 33
SWIDTH 242 0
DWIDTH 5 0
BBX 2 13 1 0
BITMAP
c0
c0
c0
c0
c0
c0
c0
c0
c0
00
00
c0
c0
ENDCHAR
STARTCHAR quotedbl
ENCODING 34
SWIDTH 458 0
DWIDTH 8 0
BBX 5 5 1 8
BITMAP
d8
d8
d8
90
90
ENDCHAR
STARTCHAR numbersign
ENCODING 35
SWIDTH 530 0
DWIDTH 10 0
BBX 8 12 1 1
BITMAP
12
12
12
7f
24
24
24
24
fe
48
48
48
ENDCHAR
STARTCHAR dollar
ENCODING 36
SWIDTH 530 0
DWIDTH 10 0
BBX 8 15 1 -1
BITMAP
08
3e
6b
c9
c8
e8
78
3c
1e
17
13
93
d6
7c
10
ENDCHAR
STARTCHAR percent
ENCODING 37
SWIDTH 838 0
DWIDTH 16 0
BBX 13 13 2 0
BITMAP
7020
8fc0
8840
8880
8900
8900
7270
0488
0488
0888
1088
1088
2070
ENDCHAR
STARTCHAR ampersand
ENCODING 38
SWIDTH 706 0
DWIDTH 13 0
BBX 12 13 1 0
BITMAP
1c00
2200
6300
6300
3200
3c20
6c30
c630
c320
c1c0
c0c0
61e0
1e30
ENDCHAR
STARTCHAR apostrophe
ENCODING 39
SWIDTH 278 0
DWIDTH 5 0
BBX 3 5 1 8
BITMAP
40
e0
60
40
80
ENDCHAR
STARTCHAR parenleft
ENCODING 40
SWIDTH 350 0
DWIDTH 6 0
BBX 3 16 2 -3
BITMAP
20
40
40
80
80
80
80
80
80
80
80
80
80
40
40
20
ENDCHAR
STARTCHAR parenright
ENCODING 41
SWIDTH 350 0
DWIDTH 6 0
BBX 3 16 1 -3
BITMAP
80
40
40
20
20
20
20
20
20
20
20
20
20
40
40
80
ENDCHAR
STARTCHAR asterisk
ENCODING 42
SWIDTH 412 0
DWIDTH 8 0
BBX 7 7 0 6
BITMAP
10
92
54
38
54
92
10
ENDCHAR
STARTCHAR plus
ENCODING 43
SWIDTH 570 0
DWIDTH 11 0
BBX 9 9 1 0
BITMAP
0800
0800
0800
0800
ff80
0800
0800
0800
0800
ENDCHAR
STARTCHAR comma
ENCODING 44
SWIDTH 265 0
DWIDTH 5 0
BBX 3 5 0 -2
BITMAP
40
e0
60
40
80
ENDCHAR
STARTCHAR minus
ENCODING 45
SWIDTH 570 0
DWIDTH 11 0
BBX 9 1 1 4
BITMAP
ff80
ENDCHAR
STARTCHAR period
ENCODING 46
SWIDTH 265 0
DWIDTH 5 0
BBX 2 2 1 0
BITMAP
c0
c0
ENDCHAR
STARTCHAR slash
ENCODING 47
SWIDTH 460 0
DWIDTH 8 0
BBX 5 13 1 0
BITMAP
08
08
08
10
10
20
20
20
40
40
80
80
80
ENDCHAR
STARTCHAR zero
ENCODING 48
SWIDTH 530 0
DWIDTH 10 0
BBX 8 13 1 0
BITMAP
3c
66
c3
c3
c3
c3
c3
c3
c3
c3
c3
66
3c
ENDCHAR
STARTCHAR one
ENCODING 49
SWIDTH 530 0
DWIDTH 10 0
BBX 6 13 2 0
BITMAP
30
f0
30
30
30
30
30
30
30
30
30
30
fc
ENDCHAR
STARTCHAR two
ENCODING 50
SWIDTH 530 0
DWIDTH 10 0
BBX 8 13 1 0
BITMAP
3c
e6
c3
03
03
03
06
0c
30
60
c1
ff
ff
ENDCHAR
STARTCHAR three
ENCODING 51
SWIDTH 530 0
DWIDTH 10 0
BBX 8 13 1 0
BITMAP
3c
e6
c3
03
06
3c
06
03
03
03
c3
e6
3c
ENDCHAR
STARTCHAR four
ENCODING 52
SWIDTH 530 0
DWIDTH 10 0
BBX 8 13 1 0
BITMAP
0c
0c
18
1a
36
26
66
46
86
ff
06
06
1f
ENDCHAR
STARTCHAR five
ENCODING 53
SWIDTH 530 0
DWIDTH 10 0
BBX 8 13 1 0
BITMAP
ff
fe
80
80
80
fc
86
03
03
03
c3
e6
3c
ENDCHAR
STARTCHAR six
ENCODING 54
SWIDTH 530 0
DWIDTH 10 0
BBX 8 13 1 0
BITMAP
3c
67
c3
c0
c0
dc
e6
c3
c3
c3
c3
66
3c
ENDCHAR
STARTCHAR seven
ENCODING 55
SWIDTH 530 0
DWIDTH 10 0
BBX 8 13 1 0
BITMAP
ff
ff
82
06
04
0c
08
18
18
10
30
30
30
ENDCHAR
STARTCHAR eight
ENCODING 56
SWIDTH 530 0
DWIDTH 10 0
BBX 8 13 1 0
BITMAP
3c
66
c3
c3
c3
66
3c
46
c3
c3
c3
66
3c
ENDCHAR
STARTCHAR nine
ENCODING 57
SWIDTH 530 0
DWIDTH 10 0
BBX 8 13 1 0
BITMAP
3c
66
c3
c3
c3
c3
67
3b
03
03
c3
e6
3c
ENDCHAR
STARTCHAR colon
ENCODING 58
SWIDTH 265 0
DWIDTH 5 0
BBX 2 9 1 0
BITMAP
c0
c0
00
00
00
00
00
c0
c0
ENDCHAR
STARTCHAR semicolon
ENCODING 59
SWIDTH 265 0
DWIDTH 5 0
BBX 3 11 0 -2
BITMAP
60
60
00
00
00
00
40
e0
60
40
80
ENDCHAR
STARTCHAR less
ENCODING 60
SWIDTH 570 0
DWIDTH 11 0
BBX 9 9 1 0
BITMAP
0080
0380
0e00
3800
e000
3800
0e00
0380
0080
ENDCHAR
STARTCHAR equal
ENCODING 61
SWIDTH 570 0
DWIDTH 11 0
BBX 9 5 1 2
BITMAP
ff80
0000
0000
0000
ff80
ENDCHAR
STARTCHAR greater
ENCODING 62
SWIDTH 570 0
DWIDTH 11 0
BBX 9 9 1 0
BITMAP
8000
e000
3800
0e00
0380
0e00
3800
e000
8000
ENDCHAR
STARTCHAR question
ENCODING 63
SWIDTH 389 0
DWIDTH 8 0
BBX 6 13 1 0
BITMAP
78
cc
8c
0c
18
30
60
60
30
00
00
60
60
ENDCHAR
STARTCHAR at
ENCODING 64
SWIDTH 793 0
DWIDTH 16 0
BBX 14 13 1 0
BITMAP
0fc0
3030
6018
43e8
c66c
8c64
98c4
99c4
dac8
4cf0
6000
3030
0fc0
ENDCHAR
STARTCHAR A
ENCODING 65
SWIDTH 635 0
DWIDTH 12 0
BBX 12 13 0 0
BITMAP
0600
0600
0b00
0b00
0b00
1180
1180
3fc0
20c0
20c0
4060
4060
e0f0
ENDCHAR
STARTCHAR B
ENCODING 66
SWIDTH 646 0
DWIDTH 12 0
BBX 10 13 1 0
BITMAP
ff00
6180
60c0
60c0
60c0
6180
7f00
6180
60c0
60c0
60c0
6180
ff00
ENDCHAR
STARTCHAR C
ENCODING 67
SWIDTH 684 0
DWIDTH 13 0
BBX 11 13 1 0
BITMAP
0fc0
3060
6020
6000
c000
c000
c000
c000
c000
6000
6020
3060
0f80
ENDCHAR
STARTCHAR D
ENCODING 68
SWIDTH 779 0
DWIDTH 15 0
BBX 13 13 1 0
BITMAP
ff80
6060
6030
6030
6018
6018
6018
6018
6018
6030
6030
6060
ff80
ENDCHAR
STARTCHAR E
ENCODING 69
SWIDTH 606 0
DWIDTH 11 0
BBX 10 13 1 0
BITMAP
ff80
6180
6080
6000
6000
6100
7f00
6100
6000
6000
6040
60c0
ffc0
ENDCHAR
STARTCHAR F
ENCODING 70
SWIDTH 580 0
DWIDTH 11 0
BBX 9 13 1 0
BITMAP
ff80
6180
6080
6000
6000
6100
7f00
6100
6000
6000
6000
6000
f000
ENDCHAR
STARTCHAR G
ENCODING 71
SWIDTH 734 0
DWIDTH 14 0
BBX 13 13 1 0
BITMAP
0fc0
3060
6020
c000
c000
c000
c000
c0f8
c030
c030
6030
3070
0fc0
ENDCHAR
STARTCHAR H
ENCODING 72
SWIDTH 798 0
DWIDTH 15 0
BBX 13 13 1 0
BITMAP
f078
6030
6030
6030
6030
6030
7ff0
6030
6030
6030
6030
6030
f078
ENDCHAR
STARTCHAR I
ENCODING 73
SWIDTH 349 0
DWIDTH 6 0
BBX 4 13 1 0
BITMAP
f0
60
60
60
60
60
60
60
60
60
60
60
f0
ENDCHAR
STARTCHAR J
ENCODING 74
SWIDTH 350 0
DWIDTH 6 0
BBX 6 15 -1 -2
BITMAP
3c
18
18
18
18
18
18
18
18
18
18
18
18
30
c0
ENDCHAR
STARTCHAR K
ENCODING 75
SWIDTH 658 0
DWIDTH 12 0
BBX 11 13 1 0
BITMAP
f1e0
6080
6100
6200
6400
6800
7c00
6e00
6600
6300
6380
61c0
f0e0
ENDCHAR
STARTCHAR L
ENCODING 76
SWIDTH 568 0
DWIDTH 11 0
BBX 10 13 1 0
BITMAP
f000
6000
6000
6000
6000
6000
6000
6000
6000
6000
6040
60c0
ffc0
ENDCHAR
STARTCHAR M
ENCODING 77
SWIDTH 944 0
DWIDTH 18 0
BBX 16 13 1 0
BITMAP
e007
6006
700e
700e
5816
5816
4c26
4c26
4646
4646
4386
4386
e10f
ENDCHAR
STARTCHAR N
ENCODING 78
SWIDTH 780 0
DWIDTH 14 0
BBX 12 13 1 0
BITMAP
e070
7020
7020
5820
5c20
4c20
4620
4720
4320
41a0
41e0
40e0
e060
ENDCHAR
STARTCHAR O
ENCODING 79
SWIDTH 762 0
DWIDTH 14 0
BBX 13 13 1 0
BITMAP
0f80
3060
6030
6030
c018
c018
c018
c018
c018
6030
6030
3060
0f80
ENDCHAR
STARTCHAR P
ENCODING 80
SWIDTH 600 0
DWIDTH 12 0
BBX 10 13 1 0
BITMAP
ff00
6180
60c0
60c0
60c0
60c0
6180
7e00
6000
6000
6000
6000
f000
ENDCHAR
STARTCHAR Q
ENCODING 81
SWIDTH 762 0
DWIDTH 14 0
BBX 13 16 1 -3
BITMAP
0f80
3060
6030
6030
c018
c018
c018
c018
c018
6030
6030
3060
0f80
0300
0180
0070
ENDCHAR
STARTCHAR R
ENCODING 82
SWIDTH 644 0
DWIDTH 12 0
BBX 11 13 1 0
BITMAP
ff00
6180
60c0
60c0
60c0
6180
7f00
6300
6180
6180
6180
60c0
f0e0
ENDCHAR
STARTCHAR S
ENCODING 83
SWIDTH 541 0
DWIDTH 10 0
BBX 8 13 1 0
BITMAP
3e
63
c1
c0
e0
78
1e
07
03
03
83
c6
7c
ENDCHAR
STARTCHAR T
ENCODING 84
SWIDTH 621 0
DWIDTH 12 0
BBX 12 13 0 0
BITMAP
fff0
c630
8610
0600
0600
0600
0600
0600
0600
0600
0600
0600
1f80
ENDCHAR
STARTCHAR U
ENCODING 85
SWIDTH 791 0
DWIDTH 14 0
BBX 12 13 1 0
BITMAP
f0f0
6060
6060
6060
6060
6060
6060
6060
6060
6060
6060
30c0
0f00
ENDCHAR
STARTCHAR V
ENCODING 86
SWIDTH 634 0
DWIDTH 12 0
BBX 12 13 0 0
BITMAP
f070
6020
6020
3040
3040
3040
1880
1880
0d00
0d00
0d00
0600
0600
ENDCHAR
STARTCHAR W
ENCODING 87
SWIDTH 940 0
DWIDTH 18 0
BBX 18 13 0 0
BITMAP
f001c0
604080
604080
30e100
30e100
30e100
193200
193200
193200
0e1c00
0e1c00
0e1c00
040800
ENDCHAR
STARTCHAR X
ENCODING 88
SWIDTH 624 0
DWIDTH 11 0
BBX 11 13 0 0
BITMAP
f0e0
6040
3080
3900
1900
0e00
0e00
0e00
1300
1380
2180
40c0
e1e0
ENDCHAR
STARTCHAR Y
ENCODING 89
SWIDTH 588 0
DWIDTH 12 0
BBX 12 13 0 0
BITMAP
f070
6020
3040
3040
1880
0d00
0d00
0600
0600
0600
0600
0600
0f00
ENDCHAR
STARTCHAR Z
ENCODING 90
SWIDTH 610 0
DWIDTH 12 0
BBX 10 13 1 0
BITMAP
ff80
c180
8300
0600
0600
0c00
1800
1800
3000
6000
6040
c0c0
ffc0
ENDCHAR
STARTCHAR bracketleft
ENCODING 91
SWIDTH 330 0
DWIDTH 6 0
BBX 3 16 2 -3
BITMAP
e0
80
80
80
80
80
80
80
80
80
80
80
80
80
80
e0
ENDCHAR
STARTCHAR backslash
ENCODING 92
SWIDTH 460 0
DWIDTH 8 0
BBX 5 13 1 0
BITMAP
80
80
80
40
40
20
20
20
10
10
08
08
08
ENDCHAR
STARTCHAR bracketright
ENCODING 93
SWIDTH 330 0
DWIDTH 6 0
BBX 3 16 1 -3
BITMAP
e0
20
20
20
20
20
20
20
20
20
20
20
20
20
20
e0
ENDCHAR
STARTCHAR asciicircum
ENCODING 94
SWIDTH 570 0
DWIDTH 11 0
BBX 9 8 1 5
BITMAP
0800
1c00
1400
3600
2200
6300
4100
c180
ENDCHAR
STARTCHAR underscore
ENCODING 95
SWIDTH 500 0
DWIDTH 9 0
BBX 9 1 0 -2
BITMAP
ff80
ENDCHAR
STARTCHAR grave
ENCODING 96
SWIDTH 400 0
DWIDTH 7 0
BBX 3 2 1 10
BITMAP
c0
60
ENDCHAR
STARTCHAR a
ENCODING 97
SWIDTH 523 0
DWIDTH 10 0
BBX 8 9 1 0
BITMAP
7c
c6
06
0e
36
c6
c6
ce
77
ENDCHAR
STARTCHAR b
ENCODING 98
SWIDTH 598 0
DWIDTH 11 0
BBX 10 14 0 0
BITMAP
e000
6000
6000
6000
6000
6f00
7180
60c0
60c0
60c0
60c0
60c0
7180
4f00
ENDCHAR
STARTCHAR c
ENCODING 99
SWIDTH 496 0
DWIDTH 9 0
BBX 8 9 1 0
BITMAP
3c
66
c0
c0
c0
c0
c1
62
3c
ENDCHAR
STARTCHAR d
ENCODING 100
SWIDTH 598 0
DWIDTH 12 0
BBX 10 14 1 0
BITMAP
0380
0180
0180
0180
0180
3d80
6380
c180
c180
c180
c180
c180
6380
3dc0
ENDCHAR
STARTCHAR e
ENCODING 101
SWIDTH 514 0
DWIDTH 10 0
BBX 8 9 1 0
BITMAP
3c
66
c3
ff
c0
c0
c1
62
3c
ENDCHAR
STARTCHAR f
ENCODING 102
SWIDTH 319 0
DWIDTH 6 0
BBX 6 14 1 0
BITMAP
1c
24
60
60
60
f8
60
60
60
60
60
60
60
f0
ENDCHAR
STARTCHAR g
ENCODING 103
SWIDTH 520 0
DWIDTH 10 0
BBX 10 13 0 -4
BITMAP
1fc0
3300
6180
6180
3300
1e00
3000
3e00
6780
c0c0
c0c0
6180
3f00
ENDCHAR
STARTCHAR h
ENCODING 104
SWIDTH 607 0
DWIDTH 12 0
BBX 10 14 1 0
BITMAP
e000
6000
6000
6000
6000
6f00
7380
6180
6180
6180
6180
6180
6180
f3c0
ENDCHAR
STARTCHAR i
ENCODING 105
SWIDTH 291 0
DWIDTH 6 0
BBX 4 12 1 0
BITMAP
60
60
00
e0
60
60
60
60
60
60
60
f0
ENDCHAR
STARTCHAR j
ENCODING 106
SWIDTH 280 0
DWIDTH 6 0
BBX 5 16 -1 -4
BITMAP
18
18
00
38
18
18
18
18
18
18
18
18
18
18
30
c0
ENDCHAR
STARTCHAR k
ENCODING 107
SWIDTH 524 0
DWIDTH 10 0
BBX 10 14 0 0
BITMAP
e000
6000
6000
6000
6000
6180
6300
6400
7800
6c00
6600
6300
6180
f0c0
ENDCHAR
STARTCHAR l
ENCODING 108
SWIDTH 279 0
DWIDTH 6 0
BBX 4 14 1 0
BITMAP
e0
60
60
60
60
60
60
60
60
60
60
60
60
f0
ENDCHAR
STARTCHAR m
ENCODING 109
SWIDTH 923 0
DWIDTH 18 0
BBX 16 9 1 0
BITMAP
ef3c
73ce
6186
6186
6186
6186
6186
6186
f3cf
ENDCHAR
STARTCHAR n
ENCODING 110
SWIDTH 619 0
DWIDTH 12 0
BBX 10 9 1 0
BITMAP
ef00
7380
6180
6180
6180
6180
6180
6180
f3c0
ENDCHAR
STARTCHAR o
ENCODING 111
SWIDTH 577 0
DWIDTH 11 0
BBX 9 9 1 0
BITMAP
3e00
6300
c180
c180
c180
c180
c180
6300
3e00
ENDCHAR
STARTCHAR p
ENCODING 112
SWIDTH 608 0
DWIDTH 12 0
BBX 10 13 1 -4
BITMAP
ef00
7180
60c0
60c0
60c0
60c0
60c0
7180
6f00
6000
6000
6000
f000
ENDCHAR
STARTCHAR q
ENCODING 113
SWIDTH 591 0
DWIDTH 11 0
BBX 10 14 1 -4
BITMAP
0080
3d80
6380
c180
c180
c180
c180
c180
6380
3d80
0180
0180
0180
03c0
ENDCHAR
STARTCHAR r
ENCODING 114
SWIDTH 389 0
DWIDTH 7 0
BBX 6 9 1 0
BITMAP
ec
74
60
60
60
60
60
60
f0
ENDCHAR
STARTCHAR s
ENCODING 115
SWIDTH 436 0
DWIDTH 8 0
BBX 6 9 1 0
BITMAP
78
cc
80
e0
78
1c
04
cc
78
ENDCHAR
STARTCHAR t
ENCODING 116
SWIDTH 344 0
DWIDTH 6 0
BBX 5 11 1 0
BITMAP
20
60
f8
60
60
60
60
60
60
60
38
ENDCHAR
STARTCHAR u
ENCODING 117
SWIDTH 606 0
DWIDTH 11 0
BBX 10 9 0 0
BITMAP
e380
6180
6180
6180
6180
6180
6180
7380
3dc0
ENDCHAR
STARTCHAR v
ENCODING 118
SWIDTH 504 0
DWIDTH 9 0
BBX 9 9 0 0
BITMAP
f380
6100
6100
3200
3200
3200
1c00
1c00
0800
ENDCHAR
STARTCHAR w
ENCODING 119
SWIDTH 768 0
DWIDTH 14 0
BBX 14 9 0 0
BITMAP
f11c
6108
6388
3390
3390
34d0
1ce0
1ce0
0840
ENDCHAR
STARTCHAR x
ENCODING 120
SWIDTH 486 0
DWIDTH 9 0
BBX 9 9 0 0
BITMAP
f380
6100
3200
3400
1c00
1600
2600
4300
e780
ENDCHAR
STARTCHAR y
ENCODING 121
SWIDTH 506 0
DWIDTH 9 0
BBX 9 13 0 -4
BITMAP
f380
6100
6100
3200
3200
3200
1c00
1c00
0800
0800
1000
f000
6000
ENDCHAR
STARTCHAR z
ENCODING 122
SWIDTH 480 0
DWIDTH 9 0
BBX 7 9 1 0
BITMAP
fe
86
0c
18
10
30
60
c2
fe
ENDCHAR
STARTCHAR braceleft
ENCODING 123
SWIDTH 340 0
DWIDTH 6 0
BBX 4 16 1 -3
BITMAP
30
40
40
40
40
40
40
80
40
40
40
40
40
40
40
30
ENDCHAR
STARTCHAR bar
ENCODING 124
SWIDTH 228 0
DWIDTH 4 0
BBX 1 13 1 0
BITMAP
80
80
80
80
80
80
80
80
80
80
80
80
80
ENDCHAR
STARTCHAR braceright
ENCODING 125
SWIDTH 340 0
DWIDTH 6 0
BBX 4 16 1 -3
BITMAP
c0
20
20
20
20
20
20
10
20
20
20
20
20
20
20
c0
ENDCHAR
STARTCHAR asciitilde
ENCODING 126
SWIDTH 570 0
DWIDTH 11 0
BBX 9 2 1 4
BITMAP
7880
8f00
ENDCHAR
STARTCHAR nobreakspace
ENCODING 160
SWIDTH 225 0
DWIDTH 4 0
BBX 0 0 0 0
BITMAP
ENDCHAR
STARTCHAR Aogonek
ENCODING 161
SWIDTH 635 0
DWIDTH 12 0
BBX 12 17 0 -4
BITMAP
0600
0600
0b00
0b00
0b00
1180
1180
3fc0
20c0
20c0
4060
4060
e0f0
0200
0400
0c00
0700
ENDCHAR
STARTCHAR breve
ENCODING 162
SWIDTH 400 0
DWIDTH 7 0
BBX 5 2 1 10
BITMAP
88
70
ENDCHAR
STARTCHAR Lstroke
ENCODING 163
SWIDTH 574 0
DWIDTH 11 0
BBX 11 13 0 0
BITMAP
7800
3000
3000
3000
3400
3800
3000
7000
b000
3000
3020
3060
7fe0
ENDCHAR
STARTCHAR currency
ENCODING 164
SWIDTH 530 0
DWIDTH 10 0
BBX 9 8 0 3
BITMAP
be80
6300
c180
c180
c180
c180
6300
be80
ENDCHAR
STARTCHAR Lcaron
ENCODING 165
SWIDTH 568 0
DWIDTH 11 0
BBX 10 14 1 0
BITMAP
0200
f700
6300
6200
6400
6000
6000
6000
6000
6000
6000
6040
60c0
ffc0
ENDCHAR
STARTCHAR Sacute
ENCODING 166
SWIDTH 541 0
DWIDTH 10 0
BBX 8 16 1 0
BITMAP
0c
18
00
3e
63
c1
c0
e0
78
1e
07
03
03
83
c6
7c
ENDCHAR
STARTCHAR section
ENCODING 167
SWIDTH 554 0
DWIDTH 10 0
BBX 8 15 1 -2
BITMAP
3c
66
40
60
b8
8e
83
c1
71
1d
06
02
02
66
3c
ENDCHAR
STARTCHAR diaeresis
ENCODING 168
SWIDTH 400 0
DWIDTH 7 0
BBX 5 2 1 10
BITMAP
d8
d8
ENDCHAR
STARTCHAR Scaron
ENCODING 169
SWIDTH 541 0
DWIDTH 10 0
BBX 8 16 1 0
BITMAP
34
18
00
3e
63
c1
c0
e0
78
1e
07
03
03
83
c6
7c
ENDCHAR
STARTCHAR Scedilla
ENCODING 170
SWIDTH 541 0
DWIDTH 10 0
BBX 8 17 1 -4
BITMAP
3e
63
c1
c0
e0
78
1e
07
03
03
83
c6
7c
10
18
08
30
ENDCHAR
STARTCHAR Tcaron
ENCODING 171
SWIDTH 621 0
DWIDTH 12 0
BBX 12 16 0 0
BITMAP
0d00
0600
0000
fff0
c630
8610
0600
0600
0600
0600
0600
0600
0600
0600
0600
1f80
ENDCHAR
STARTCHAR Zacute
ENCODING 172
SWIDTH 610 0
DWIDTH 12 0
BBX 10 16 1 0
BITMAP
0600
0c00
0000
ff80
c180
8300
0600
0600
0c00
1800
1800
3000
6000
6040
c0c0
ffc0
ENDCHAR
STARTCHAR hyphen
ENCODING 173
SWIDTH 392 0
DWIDTH 7 0
BBX 5 1 1 4
BITMAP
f8
ENDCHAR
STARTCHAR Zcaron
ENCODING 174
SWIDTH 610 0
DWIDTH 12 0
BBX 10 16 1 0
BITMAP
1a00
0c00
0000
ff80
c180
8300
0600
0600
0c00
1800
1800
3000
6000
6040
c0c0
ffc0
ENDCHAR
STARTCHAR Zabovedot
ENCODING 175
SWIDTH 610 0
DWIDTH 12 0
BBX 10 16 1 0
BITMAP
0c00
0c00
0000
ff80
c180
8300
0600
0600
0c00
1800
1800
3000
6000
6040
c0c0
ffc0
ENDCHAR
STARTCHAR degree
ENCODING 176
SWIDTH 350 0
DWIDTH 6 0
BBX 5 5 0 8
BITMAP
70
88
88
88
70
ENDCHAR
STARTCHAR aogonek
ENCODING 177
SWIDTH 523 0
DWIDTH 10 0
BBX 8 13 1 -4
BITMAP
7c
c6
06
0e
36
c6
c6
ce
77
08
10
30
1c
ENDCHAR
STARTCHAR ogonek
ENCODING 178
SWIDTH 400 0
DWIDTH 7 0
BBX 4 4 1 -4
BITMAP
20
40
c0
70
ENDCHAR
STARTCHAR lstroke
ENCODING 179
SWIDTH 294 0
DWIDTH 6 0
BBX 6 14 0 0
BITMAP
70
30
30
30
34
38
30
30
70
b0
30
30
30
78
ENDCHAR
STARTCHAR acute
ENCODING 180
SWIDTH 400 0
DWIDTH 7 0
BBX 3 2 1 10
BITMAP
60
c0
ENDCHAR
STARTCHAR lcaron
ENCODING 181
SWIDTH 480 0
DWIDTH 9 0
BBX 7 15 1 0
BITMAP
04
ee
66
64
68
60
60
60
60
60
60
60
60
60
f0
ENDCHAR
STARTCHAR sacute
ENCODING 182
SWIDTH 436 0
DWIDTH 8 0
BBX 6 12 1 0
BITMAP
18
30
00
78
cc
80
e0
78
1c
04
cc
78
ENDCHAR
STARTCHAR caron
ENCODING 183
SWIDTH 400 0
DWIDTH 7 0
BBX 4 2 1 10
BITMAP
d0
60
ENDCHAR
STARTCHAR cedilla
ENCODING 184
SWIDTH 400 0
DWIDTH 7 0
BBX 3 4 2 -4
BITMAP
40
60
20
c0
ENDCHAR
STARTCHAR scaron
ENCODING 185
SWIDTH 436 0
DWIDTH 8 0
BBX 6 12 1 0
BITMAP
68
30
00
78
cc
80
e0
78
1c
04
cc
78
ENDCHAR
STARTCHAR scedilla
ENCODING 186
SWIDTH 436 0
DWIDTH 8 0
BBX 6 13 1 -4
BITMAP
78
cc
80
e0
78
1c
04
cc
78
20
30
10
60
ENDCHAR
STARTCHAR tcaron
ENCODING 187
SWIDTH 426 0
DWIDTH 8 0
BBX 7 15 1 0
BITMAP
04
0e
06
04
28
60
f8
60
60
60
60
60
60
60
38
ENDCHAR
STARTCHAR zacute
ENCODING 188
SWIDTH 480 0
DWIDTH 9 0
BBX 7 12 1 0
BITMAP
0c
18
00
fe
86
0c
18
10
30
60
c2
fe
ENDCHAR
STARTCHAR doubleacute
ENCODING 189
SWIDTH 400 0
DWIDTH 7 0
BBX 6 2 0 10
BITMAP
6c
d8
ENDCHAR
STARTCHAR zcaron
ENCODING 190
SWIDTH 480 0
DWIDTH 9 0
BBX 7 12 1 0
BITMAP
34
18
00
fe
86
0c
18
10
30
60
c2
fe
ENDCHAR
STARTCHAR zabovedot
ENCODING 191
SWIDTH 480 0
DWIDTH 9 0
BBX 7 12 1 0
BITMAP
18
18
00
fe
86
0c
18
10
30
60
c2
fe
ENDCHAR
STARTCHAR Racute
ENCODING 192
SWIDTH 644 0
DWIDTH 12 0
BBX 11 16 1 0
BITMAP
0600
0c00
0000
ff00
6180
60c0
60c0
60c0
6180
7f00
6300
6180
6180
6180
60c0
f0e0
ENDCHAR
STARTCHAR Aacute
ENCODING 193
SWIDTH 635 0
DWIDTH 12 0
BBX 12 14 0 0
BITMAP
0600
0c00
0000
0600
0600
0b00
0b00
1180
1180
3fc0
20c0
4060
4060
e0f0
ENDCHAR
STARTCHAR Acircumflex
ENCODING 194
SWIDTH 635 0
DWIDTH 12 0
BBX 12 14 0 0
BITMAP
0600
0d00
0000
0600
0600
0b00
0b00
1180
1180
3fc0
20c0
4060
4060
e0f0
ENDCHAR
STARTCHAR Abreve
ENCODING 195
SWIDTH 635 0
DWIDTH 12 0
BBX 12 16 0 0
BITMAP
1100
0e00
0000
0600
0600
0b00
0b00
0b00
1180
1180
3fc0
20c0
20c0
4060
4060
e0f0
ENDCHAR
STARTCHAR Adiaeresis
ENCODING 196
SWIDTH 635 0
DWIDTH 12 0
BBX 12 14 0 0
BITMAP
1b00
1b00
0000
0600
0600
0b00
0b00
1180
1180
3fc0
20c0
4060
4060
e0f0
ENDCHAR
STARTCHAR Lacute
ENCODING 197
SWIDTH 568 0
DWIDTH 11 0
BBX 10 16 1 0
BITMAP
3000
6000
0000
f000
6000
6000
6000
6000
6000
6000
6000
6000
6000
6040
60c0
ffc0
ENDCHAR
STARTCHAR Cacute
ENCODING 198
SWIDTH 684 0
DWIDTH 13 0
BBX 11 16 1 0
BITMAP
0300
0600
0000
0fc0
3060
6020
6000
c000
c000
c000
c000
c000
6000
6020
3060
0f80
ENDCHAR
STARTCHAR Ccedilla
ENCODING 199
SWIDTH 680 0
DWIDTH 13 0
BBX 11 17 1 -4
BITMAP
0fc0
3060
6020
6000
c000
c000
c000
c000
c000
6000
6020
3060
0f80
0200
0300
0100
0600
ENDCHAR
STARTCHAR Ccaron
ENCODING 200
SWIDTH 684 0
DWIDTH 13 0
BBX 11 16 1 0
BITMAP
0d00
0600
0000
0fc0
3060
6020
6000
c000
c000
c000
c000
c000
6000
6020
3060
0f80
ENDCHAR
STARTCHAR Eacute
ENCODING 201
SWIDTH 606 0
DWIDTH 11 0
BBX 10 14 1 0
BITMAP
0600
0c00
0000
ff80
6180
6080
6000
6200
7e00
6200
6000
6040
60c0
ffc0
ENDCHAR
STARTCHAR Eogonek
ENCODING 202
SWIDTH 606 0
DWIDTH 11 0
BBX 10 17 1 -4
BITMAP
ff80
6180
6080
6000
6000
6100
7f00
6100
6000
6000
6040
60c0
ffc0
0400
0800
1800
0e00
ENDCHAR
STARTCHAR Ediaeresis
ENCODING 203
SWIDTH 606 0
DWIDTH 11 0
BBX 10 14 1 0
BITMAP
3600
3600
0000
ff80
6180
6080
6000
6200
7e00
6200
6000
6040
60c0
ffc0
ENDCHAR
STARTCHAR Ecaron
ENCODING 204
SWIDTH 606 0
DWIDTH 11 0
BBX 10 16 1 0
BITMAP
1a00
0c00
0000
ff80
6180
6080
6000
6000
6100
7f00
6100
6000
6000
6040
60c0
ffc0
ENDCHAR
STARTCHAR Iacute
ENCODING 205
SWIDTH 349 0
DWIDTH 6 0
BBX 4 14 1 0
BITMAP
30
60
00
f0
60
60
60
60
60
60
60
60
60
f0
ENDCHAR
STARTCHAR Icircumflex
ENCODING 206
SWIDTH 349 0
DWIDTH 6 0
BBX 4 14 1 0
BITMAP
60
d0
00
f0
60
60
60
60
60
60
60
60
60
f0
ENDCHAR
STARTCHAR Dcaron
ENCODING 207
SWIDTH 779 0
DWIDTH 15 0
BBX 13 16 1 0
BITMAP
0d00
0600
0000
ff80
6060
6030
6030
6018
6018
6018
6018
6018
6030
6030
6060
ff80
ENDCHAR
STARTCHAR Dstroke
ENCODING 208
SWIDTH 785 0
DWIDTH 15 0
BBX 13 13 1 0
BITMAP
ff80
6060
6030
6030
6018
6018
f818
6018
6018
6030
6030
6060
ff80
ENDCHAR
STARTCHAR Nacute
ENCODING 209
SWIDTH 780 0
DWIDTH 14 0
BBX 12 16 1 0
BITMAP
0300
0600
0000
e070
7020
7020
5820
5c20
4c20
4620
4720
4320
41a0
41e0
40e0
e060
ENDCHAR
STARTCHAR Ncaron
ENCODING 210
SWIDTH 780 0
DWIDTH 14 0
BBX 12 16 1 0
BITMAP
0d00
0600
0000
e070
7020
7020
5820
5c20
4c20
4620
4720
4320
41a0
41e0
40e0
e060
ENDCHAR
STARTCHAR Oacute
ENCODING 211
SWIDTH 762 0
DWIDTH 15 0
BBX 13 14 1 0
BITMAP
0300
0600
0000
0f80
3060
6030
c018
c018
c018
c018
c018
6030
3060
0f80
ENDCHAR
STARTCHAR Ocircumflex
ENCODING 212
SWIDTH 762 0
DWIDTH 15 0
BBX 13 14 1 0
BITMAP
0600
0d00
0000
0f80
3060
6030
c018
c018
c018
c018
c018
6030
3060
0f80
ENDCHAR
STARTCHAR Odoubleacute
ENCODING 213
SWIDTH 762 0
DWIDTH 14 0
BBX 13 16 1 0
BITMAP
06c0
0d80
0000
0f80
3060
6030
6030
c018
c018
c018
c018
c018
6030
6030
3060
0f80
ENDCHAR
STARTCHAR Odiaeresis
ENCODING 214
SWIDTH 762 0
DWIDTH 15 0
BBX 13 14 1 0
BITMAP
0d80
0d80
0000
0f80
3060
6030
c018
c018
c018
c018
c018
6030
3060
0f80
ENDCHAR
STARTCHAR multiply
ENCODING 215
SWIDTH 570 0
DWIDTH 11 0
BBX 9 8 1 1
BITMAP
c180
6300
3600
1c00
1c00
3600
6300
c180
ENDCHAR
STARTCHAR Rcaron
ENCODING 216
SWIDTH 644 0
DWIDTH 12 0
BBX 11 16 1 0
BITMAP
1a00
0c00
0000
ff00
6180
60c0
60c0
60c0
6180
7f00
6300
6180
6180
6180
60c0
f0e0
ENDCHAR
STARTCHAR Uring
ENCODING 217
SWIDTH 791 0
DWIDTH 14 0
BBX 12 18 1 0
BITMAP
0600
0900
0900
0600
0000
f0f0
6060
6060
6060
6060
6060
6060
6060
6060
6060
6060
30c0
0f00
ENDCHAR
STARTCHAR Uacute
ENCODING 218
SWIDTH 791 0
DWIDTH 14 0
BBX 12 14 1 0
BITMAP
0300
0600
0000
f0f0
6060
6060
6060
6060
6060
6060
6060
6060
30c0
0f00
ENDCHAR
STARTCHAR Udoubleacute
ENCODING 219
SWIDTH 791 0
DWIDTH 14 0
BBX 12 16 1 0
BITMAP
0d80
1b00
0000
f0f0
6060
6060
6060
6060
6060
6060
6060
6060
6060
6060
30c0
0f00
ENDCHAR
STARTCHAR Udiaeresis
ENCODING 220
SWIDTH 791 0
DWIDTH 14 0
BBX 12 14 1 0
BITMAP
1b00
1b00
0000
f0f0
6060
6060
6060
6060
6060
6060
6060
6060
30c0
0f00
ENDCHAR
STARTCHAR Yacute
ENCODING 221
SWIDTH 588 0
DWIDTH 12 0
BBX 12 14 0 0
BITMAP
0300
0600
0000
f070
6020
3040
1880
0d00
0600
0600
0600
0600
0600
0f00
ENDCHAR
STARTCHAR Tcedilla
ENCODING 222
SWIDTH 621 0
DWIDTH 12 0
BBX 12 17 0 -4
BITMAP
fff0
c630
8610
0600
0600
0600
0600
0600
0600
0600
0600
0600
1f80
0400
0600
0200
0c00
ENDCHAR
STARTCHAR ssharp
ENCODING 223
SWIDTH 601 0
DWIDTH 11 0
BBX 10 14 0 0
BITMAP
1e00
3100
6180
6180
6100
6200
6600
6700
6380
61c0
60c0
60c0
6c80
e700
ENDCHAR
STARTCHAR racute
ENCODING 224
SWIDTH 389 0
DWIDTH 7 0
BBX 6 12 1 0
BITMAP
18
30
00
ec
74
60
60
60
60
60
60
f0
ENDCHAR
STARTCHAR aacute
ENCODING 225
SWIDTH 523 0
DWIDTH 10 0
BBX 8 12 1 0
BITMAP
18
30
00
7c
c6
06
0e
36
c6
c6
ce
77
ENDCHAR
STARTCHAR acircumflex
ENCODING 226
SWIDTH 523 0
DWIDTH 10 0
BBX 8 12 1 0
BITMAP
30
68
00
7c
c6
06
0e
36
c6
c6
ce
77
ENDCHAR
STARTCHAR abreve
ENCODING 227
SWIDTH 523 0
DWIDTH 10 0
BBX 8 12 1 0
BITMAP
44
38
00
7c
c6
06
0e
36
c6
c6
ce
77
ENDCHAR
STARTCHAR adiaeresis
ENCODING 228
SWIDTH 523 0
DWIDTH 10 0
BBX 8 12 1 0
BITMAP
6c
6c
00
7c
c6
06
0e
36
c6
c6
ce
77
ENDCHAR
STARTCHAR lacute
ENCODING 229
SWIDTH 279 0
DWIDTH 6 0
BBX 4 17 1 0
BITMAP
30
60
00
e0
60
60
60
60
60
60
60
60
60
60
60
60
f0
ENDCHAR
STARTCHAR cacute
ENCODING 230
SWIDTH 496 0
DWIDTH 9 0
BBX 8 12 1 0
BITMAP
0c
18
00
3c
66
c0
c0
c0
c0
c1
62
3c
ENDCHAR
STARTCHAR ccedilla
ENCODING 231
SWIDTH 496 0
DWIDTH 9 0
BBX 8 13 1 -4
BITMAP
3c
66
c0
c0
c0
c0
c1
62
3c
08
0c
04
18
ENDCHAR
STARTCHAR ccaron
ENCODING 232
SWIDTH 496 0
DWIDTH 9 0
BBX 8 12 1 0
BITMAP
34
18
00
3c
66
c0
c0
c0
c0
c1
62
3c
ENDCHAR
STARTCHAR eacute
ENCODING 233
SWIDTH 514 0
DWIDTH 10 0
BBX 8 12 1 0
BITMAP
0c
18
00
3c
66
c3
ff
c0
c0
c1
62
3c
ENDCHAR
STARTCHAR eogonek
ENCODING 234
SWIDTH 514 0
DWIDTH 10 0
BBX 8 13 1 -4
BITMAP
3c
66
c3
ff
c0
c0
c1
62
3c
08
10
30
1c
ENDCHAR
STARTCHAR ediaeresis
ENCODING 235
SWIDTH 514 0
DWIDTH 10 0
BBX 8 12 1 0
BITMAP
6c
6c
00
3c
66
c3
ff
c0
c0
c1
62
3c
ENDCHAR
STARTCHAR ecaron
ENCODING 236
SWIDTH 514 0
DWIDTH 10 0
BBX 8 12 1 0
BITMAP
34
18
00
3c
66
c3
ff
c0
c0
c1
62
3c
ENDCHAR
STARTCHAR iacute
ENCODING 237
SWIDTH 291 0
DWIDTH 6 0
BBX 4 12 1 0
BITMAP
60
c0
00
e0
60
60
60
60
60
60
60
f0
ENDCHAR
STARTCHAR icircumflex
ENCODING 238
SWIDTH 291 0
DWIDTH 6 0
BBX 5 12 0 0
BITMAP
60
d0
00
70
30
30
30
30
30
30
30
78
ENDCHAR
STARTCHAR dcaron
ENCODING 239
SWIDTH 800 0
DWIDTH 15 0
BBX 13 15 1 0
BITMAP
0010
03b8
0198
0190
01a0
0180
3d80
6380
c180
c180
c180
c180
c180
6380
3dc0
ENDCHAR
STARTCHAR dstroke
ENCODING 240
SWIDTH 746 0
DWIDTH 14 0
BBX 12 14 1 0
BITMAP
0380
0180
0ff0
0180
0180
3d80
6380
c180
c180
c180
c180
c180
6380
3dc0
ENDCHAR
STARTCHAR nacute
ENCODING 241
SWIDTH 619 0
DWIDTH 12 0
BBX 10 12 1 0
BITMAP
0600
0c00
0000
ef00
7380
6180
6180
6180
6180
6180
6180
f3c0
ENDCHAR
STARTCHAR ncaron
ENCODING 242
SWIDTH 619 0
DWIDTH 12 0
BBX 10 12 1 0
BITMAP
1a00
0c00
0000
ef00
7380
6180
6180
6180
6180
6180
6180
f3c0
ENDCHAR
STARTCHAR oacute
ENCODING 243
SWIDTH 577 0
DWIDTH 11 0
BBX 9 12 1 0
BITMAP
0c00
1800
0000
3e00
6300
c180
c180
c180
c180
c180
6300
3e00
ENDCHAR
STARTCHAR ocircumflex
ENCODING 244
SWIDTH 577 0
DWIDTH 11 0
BBX 9 12 1 0
BITMAP
1800
3400
0000
3e00
6300
c180
c180
c180
c180
c180
6300
3e00
ENDCHAR
STARTCHAR odoubleacute
ENCODING 245
SWIDTH 577 0
DWIDTH 11 0
BBX 9 12 1 0
BITMAP
1b00
3600
0000
3e00
6300
c180
c180
c180
c180
c180
6300
3e00
ENDCHAR
STARTCHAR odiaeresis
ENCODING 246
SWIDTH 577 0
DWIDTH 11 0
BBX 9 12 1 0
BITMAP
3600
3600
0000
3e00
6300
c180
c180
c180
c180
c180
6300
3e00
ENDCHAR
STARTCHAR division
ENCODING 247
SWIDTH 570 0
DWIDTH 11 0
BBX 9 7 1 1
BITMAP
0800
0800
0000
ff80
0000
0800
0800
ENDCHAR
STARTCHAR rcaron
ENCODING 248
SWIDTH 389 0
DWIDTH 7 0
BBX 6 12 1 0
BITMAP
68
30
00
ec
74
60
60
60
60
60
60
f0
ENDCHAR
STARTCHAR uring
ENCODING 249
SWIDTH 606 0
DWIDTH 11 0
BBX 10 14 0 0
BITMAP
0c00
1200
1200
0c00
0000
e380
6180
6180
6180
6180
6180
6180
7380
3dc0
ENDCHAR
STARTCHAR uacute
ENCODING 250
SWIDTH 606 0
DWIDTH 11 0
BBX 10 12 0 0
BITMAP
0c00
1800
0000
e380
6180
6180
6180
6180
6180
6180
7380
3dc0
ENDCHAR
STARTCHAR udoubleacute
ENCODING 251
SWIDTH 606 0
DWIDTH 11 0
BBX 10 12 0 0
BITMAP
1b00
3600
0000
e380
6180
6180
6180
6180
6180
6180
7380
3dc0
ENDCHAR
STARTCHAR udiaeresis
ENCODING 252
SWIDTH 606 0
DWIDTH 11 0
BBX 10 12 0 0
BITMAP
3600
3600
0000
e380
6180
6180
6180
6180
6180
6180
7380
3dc0
ENDCHAR
STARTCHAR yacute
ENCODING 253
SWIDTH 506 0
DWIDTH 9 0
BBX 9 16 0 -4
BITMAP
0c00
1800
0000
f380
6100
6100
3200
3200
3200
1c00
1c00
0800
0800
1000
f000
6000
ENDCHAR
STARTCHAR tcedilla
ENCODING 254
SWIDTH 344 0
DWIDTH 6 0
BBX 5 15 1 -4
BITMAP
20
60
f8
60
60
60
60
60
60
60
38
20
30
10
60
ENDCHAR
STARTCHAR abovedot
ENCODING 255
SWIDTH 400 0
DWIDTH 7 0
BBX 2 2 2 10
BITMAP
c0
c0
ENDCHAR
ENDFONT
